<svg width="1440" height="1024" viewBox="0 0 1440 1024" fill="none" xmlns="http://www.w3.org/2000/svg">
<g clip-path="url(#clip0_11_2996)">
<rect width="1440" height="1024" fill="#1D232A"/>
<ellipse cx="142" cy="76" rx="325" ry="340" fill="#21304C"/>
<ellipse cx="693.5" cy="1174" rx="386.5" ry="522" fill="#233047"/>
<path d="M-13.4196 455.395L220.423 1128.92L-611.053 844.183L-13.4196 455.395Z" fill="#374C70"/>
<path d="M768.222 624.716L399.41 -272.689L1265.02 44.7894L768.222 624.716Z" fill="#374C70"/>
<path d="M254.386 542L241.25 495.455H250.318L258.705 529.659H259.136L268.091 495.455H276.341L285.318 529.682H285.727L294.114 495.455H303.182L290.045 542H281.727L272.409 509.341H272.045L262.705 542H254.386ZM315.148 542.705C312.936 542.705 310.943 542.311 309.17 541.523C307.413 540.72 306.019 539.538 304.989 537.977C303.973 536.417 303.466 534.492 303.466 532.205C303.466 530.235 303.83 528.606 304.557 527.318C305.284 526.03 306.277 525 307.534 524.227C308.792 523.455 310.208 522.871 311.784 522.477C313.375 522.068 315.019 521.773 316.716 521.591C318.761 521.379 320.42 521.189 321.693 521.023C322.966 520.841 323.89 520.568 324.466 520.205C325.057 519.826 325.352 519.242 325.352 518.455V518.318C325.352 516.606 324.845 515.28 323.83 514.341C322.814 513.402 321.352 512.932 319.443 512.932C317.428 512.932 315.83 513.371 314.648 514.25C313.481 515.129 312.693 516.167 312.284 517.364L304.602 516.273C305.208 514.152 306.208 512.379 307.602 510.955C308.996 509.515 310.701 508.439 312.716 507.727C314.731 507 316.958 506.636 319.398 506.636C321.08 506.636 322.754 506.833 324.42 507.227C326.087 507.621 327.61 508.273 328.989 509.182C330.367 510.076 331.473 511.295 332.307 512.841C333.155 514.386 333.58 516.318 333.58 518.636V542H325.67V537.205H325.398C324.898 538.174 324.193 539.083 323.284 539.932C322.39 540.765 321.261 541.439 319.898 541.955C318.549 542.455 316.966 542.705 315.148 542.705ZM317.284 536.659C318.936 536.659 320.367 536.333 321.58 535.682C322.792 535.015 323.723 534.136 324.375 533.045C325.042 531.955 325.375 530.765 325.375 529.477V525.364C325.117 525.576 324.678 525.773 324.057 525.955C323.451 526.136 322.769 526.295 322.011 526.432C321.254 526.568 320.504 526.689 319.761 526.795C319.019 526.902 318.375 526.992 317.83 527.068C316.602 527.235 315.504 527.508 314.534 527.886C313.564 528.265 312.799 528.795 312.239 529.477C311.678 530.144 311.398 531.008 311.398 532.068C311.398 533.583 311.951 534.727 313.057 535.5C314.163 536.273 315.572 536.659 317.284 536.659ZM341.852 542V507.091H349.83V512.909H350.193C350.83 510.894 351.92 509.341 353.466 508.25C355.027 507.144 356.807 506.591 358.807 506.591C359.261 506.591 359.769 506.614 360.33 506.659C360.905 506.689 361.383 506.742 361.761 506.818V514.386C361.413 514.265 360.86 514.159 360.102 514.068C359.36 513.962 358.64 513.909 357.943 513.909C356.443 513.909 355.095 514.235 353.898 514.886C352.716 515.523 351.784 516.409 351.102 517.545C350.42 518.682 350.08 519.992 350.08 521.477V542H341.852ZM381.244 542.682C377.744 542.682 374.722 541.955 372.176 540.5C369.646 539.03 367.699 536.955 366.335 534.273C364.972 531.576 364.29 528.402 364.29 524.75C364.29 521.159 364.972 518.008 366.335 515.295C367.714 512.568 369.638 510.447 372.108 508.932C374.578 507.402 377.479 506.636 380.812 506.636C382.964 506.636 384.994 506.985 386.903 507.682C388.828 508.364 390.525 509.424 391.994 510.864C393.479 512.303 394.646 514.136 395.494 516.364C396.343 518.576 396.767 521.212 396.767 524.273V526.795H368.153V521.25H388.881C388.866 519.674 388.525 518.273 387.858 517.045C387.191 515.803 386.259 514.826 385.062 514.114C383.881 513.402 382.502 513.045 380.926 513.045C379.244 513.045 377.767 513.455 376.494 514.273C375.222 515.076 374.229 516.136 373.517 517.455C372.82 518.758 372.464 520.189 372.449 521.75V526.591C372.449 528.621 372.82 530.364 373.562 531.818C374.305 533.258 375.343 534.364 376.676 535.136C378.009 535.894 379.57 536.273 381.358 536.273C382.555 536.273 383.638 536.106 384.608 535.773C385.578 535.424 386.419 534.917 387.131 534.25C387.843 533.583 388.381 532.758 388.744 531.773L396.426 532.636C395.941 534.667 395.017 536.439 393.653 537.955C392.305 539.455 390.578 540.621 388.472 541.455C386.366 542.273 383.956 542.682 381.244 542.682ZM404.091 542V495.455H434.364V502.523H412.523V515.159H432.795V522.227H412.523V534.932H434.545V542H404.091ZM452.648 542.705C450.436 542.705 448.443 542.311 446.67 541.523C444.913 540.72 443.519 539.538 442.489 537.977C441.473 536.417 440.966 534.492 440.966 532.205C440.966 530.235 441.33 528.606 442.057 527.318C442.784 526.03 443.777 525 445.034 524.227C446.292 523.455 447.708 522.871 449.284 522.477C450.875 522.068 452.519 521.773 454.216 521.591C456.261 521.379 457.92 521.189 459.193 521.023C460.466 520.841 461.39 520.568 461.966 520.205C462.557 519.826 462.852 519.242 462.852 518.455V518.318C462.852 516.606 462.345 515.28 461.33 514.341C460.314 513.402 458.852 512.932 456.943 512.932C454.928 512.932 453.33 513.371 452.148 514.25C450.981 515.129 450.193 516.167 449.784 517.364L442.102 516.273C442.708 514.152 443.708 512.379 445.102 510.955C446.496 509.515 448.201 508.439 450.216 507.727C452.231 507 454.458 506.636 456.898 506.636C458.58 506.636 460.254 506.833 461.92 507.227C463.587 507.621 465.11 508.273 466.489 509.182C467.867 510.076 468.973 511.295 469.807 512.841C470.655 514.386 471.08 516.318 471.08 518.636V542H463.17V537.205H462.898C462.398 538.174 461.693 539.083 460.784 539.932C459.89 540.765 458.761 541.439 457.398 541.955C456.049 542.455 454.466 542.705 452.648 542.705ZM454.784 536.659C456.436 536.659 457.867 536.333 459.08 535.682C460.292 535.015 461.223 534.136 461.875 533.045C462.542 531.955 462.875 530.765 462.875 529.477V525.364C462.617 525.576 462.178 525.773 461.557 525.955C460.951 526.136 460.269 526.295 459.511 526.432C458.754 526.568 458.004 526.689 457.261 526.795C456.519 526.902 455.875 526.992 455.33 527.068C454.102 527.235 453.004 527.508 452.034 527.886C451.064 528.265 450.299 528.795 449.739 529.477C449.178 530.144 448.898 531.008 448.898 532.068C448.898 533.583 449.451 534.727 450.557 535.5C451.663 536.273 453.072 536.659 454.784 536.659ZM506.943 516.318L499.443 517.136C499.231 516.379 498.86 515.667 498.33 515C497.814 514.333 497.117 513.795 496.239 513.386C495.36 512.977 494.284 512.773 493.011 512.773C491.299 512.773 489.86 513.144 488.693 513.886C487.542 514.629 486.973 515.591 486.989 516.773C486.973 517.788 487.345 518.614 488.102 519.25C488.875 519.886 490.148 520.409 491.92 520.818L497.875 522.091C501.178 522.803 503.633 523.932 505.239 525.477C506.86 527.023 507.678 529.045 507.693 531.545C507.678 533.742 507.034 535.682 505.761 537.364C504.504 539.03 502.754 540.333 500.511 541.273C498.269 542.212 495.693 542.682 492.784 542.682C488.511 542.682 485.072 541.788 482.466 540C479.86 538.197 478.307 535.689 477.807 532.477L485.83 531.705C486.193 533.28 486.966 534.47 488.148 535.273C489.33 536.076 490.867 536.477 492.761 536.477C494.716 536.477 496.284 536.076 497.466 535.273C498.663 534.47 499.261 533.477 499.261 532.295C499.261 531.295 498.875 530.47 498.102 529.818C497.345 529.167 496.163 528.667 494.557 528.318L488.602 527.068C485.254 526.371 482.777 525.197 481.17 523.545C479.564 521.879 478.769 519.773 478.784 517.227C478.769 515.076 479.352 513.212 480.534 511.636C481.731 510.045 483.39 508.818 485.511 507.955C487.648 507.076 490.11 506.636 492.898 506.636C496.989 506.636 500.208 507.508 502.557 509.25C504.92 510.992 506.383 513.348 506.943 516.318ZM529.932 542.682C526.432 542.682 523.409 541.955 520.864 540.5C518.333 539.03 516.386 536.955 515.023 534.273C513.659 531.576 512.977 528.402 512.977 524.75C512.977 521.159 513.659 518.008 515.023 515.295C516.402 512.568 518.326 510.447 520.795 508.932C523.265 507.402 526.167 506.636 529.5 506.636C531.652 506.636 533.682 506.985 535.591 507.682C537.515 508.364 539.212 509.424 540.682 510.864C542.167 512.303 543.333 514.136 544.182 516.364C545.03 518.576 545.455 521.212 545.455 524.273V526.795H516.841V521.25H537.568C537.553 519.674 537.212 518.273 536.545 517.045C535.879 515.803 534.947 514.826 533.75 514.114C532.568 513.402 531.189 513.045 529.614 513.045C527.932 513.045 526.455 513.455 525.182 514.273C523.909 515.076 522.917 516.136 522.205 517.455C521.508 518.758 521.152 520.189 521.136 521.75V526.591C521.136 528.621 521.508 530.364 522.25 531.818C522.992 533.258 524.03 534.364 525.364 535.136C526.697 535.894 528.258 536.273 530.045 536.273C531.242 536.273 532.326 536.106 533.295 535.773C534.265 535.424 535.106 534.917 535.818 534.25C536.53 533.583 537.068 532.758 537.432 531.773L545.114 532.636C544.629 534.667 543.705 536.439 542.341 537.955C540.992 539.455 539.265 540.621 537.159 541.455C535.053 542.273 532.644 542.682 529.932 542.682Z" fill="#D9D9D9"/>
<circle cx="179.5" cy="519.5" r="37.5" fill="#D9D9D9"/>
</g>
<defs>
<clipPath id="clip0_11_2996">
<rect width="1440" height="1024" fill="white"/>
</clipPath>
</defs>
</svg>
